/* XPM */
static char *_135dc6755fd4b2ee879a7e2a46602e5VF4ldjFCvs877rYs[] = {
/* columns rows colors chars-per-pixel */
"64 64 206 2 ",
"   c #1D7952",
".  c #1E7E5A",
"X  c #227F55",
"o  c #569E3E",
"O  c #61AA3E",
"+  c #6EAE39",
"@  c #6EB43C",
"#  c #76B836",
"$  c #71B43A",
"%  c #74BA3B",
"&  c #79BC3A",
"*  c #7EC539",
"=  c #1F825B",
"-  c #34874C",
";  c #348B4E",
":  c #288957",
">  c #22845B",
",  c #228C5D",
"<  c #328751",
"1  c #2E935E",
"2  c #34945B",
"3  c #1F8962",
"4  c #248B63",
"5  c #278C66",
"6  c #258E6A",
"7  c #249266",
"8  c #24946B",
"9  c #2B946D",
"0  c #269A6C",
"q  c #2A9A6B",
"w  c #349F69",
"e  c #259672",
"r  c #2A9572",
"t  c #269973",
"y  c #2B9C74",
"u  c #279B7B",
"i  c #2B9D7B",
"p  c #319471",
"a  c #329B74",
"s  c #349C7B",
"d  c #3A9D79",
"f  c #39A567",
"g  c #2AA27A",
"h  c #2AA27D",
"j  c #31A970",
"k  c #31A37D",
"l  c #3BB67F",
"z  c #4A9746",
"x  c #569D42",
"c  c #58A94B",
"v  c #51AA53",
"b  c #61AC44",
"n  c #69AF43",
"m  c #6BB545",
"M  c #68B645",
"N  c #77BE49",
"B  c #69B555",
"V  c #46AC67",
"C  c #45B166",
"Z  c #5DB867",
"A  c #47B372",
"S  c #4CB177",
"D  c #61B363",
"F  c #79C340",
"G  c #77CE58",
"H  c #5AC576",
"J  c #7DD968",
"K  c #68CC75",
"L  c #73CD70",
"P  c #6AD67A",
"I  c #74D57E",
"U  c #80BB31",
"Y  c #ADDF1F",
"T  c #AFE11F",
"R  c #B1E21E",
"E  c #96CC27",
"W  c #96CD2E",
"Q  c #99CF2F",
"!  c #9DD22C",
"~  c #86C135",
"^  c #8DC636",
"/  c #87CB35",
"(  c #8CC43A",
")  c #89C93A",
"_  c #90C736",
"`  c #95CB33",
"'  c #98CE30",
"]  c #90C738",
"[  c #9AD130",
"{  c #95D239",
"}  c #A3D727",
"|  c #A7DB25",
" . c #A9DB23",
".. c #AADD22",
"X. c #ADDF21",
"o. c #A8DB24",
"O. c #A9DC24",
"+. c #A1D52A",
"@. c #A4D828",
"#. c #A5D828",
"$. c #A2DF32",
"%. c #98E13F",
"&. c #AEE020",
"*. c #B0E120",
"=. c #A8E032",
"-. c #86CC42",
";. c #8DD245",
":. c #94D843",
">. c #8AD859",
",. c #95D45D",
"<. c #83D169",
"1. c #89D369",
"2. c #3A9E80",
"3. c #2CA583",
"4. c #2CA984",
"5. c #2CAD8B",
"6. c #33A583",
"7. c #37A685",
"8. c #33AC84",
"9. c #33AC8B",
"0. c #3BAC8B",
"q. c #2CB284",
"w. c #2EB28B",
"e. c #32B28B",
"r. c #3AB18D",
"t. c #3DAF91",
"y. c #2DB593",
"u. c #2FB993",
"i. c #2EB698",
"p. c #2EBB9B",
"a. c #34B493",
"s. c #3CB393",
"d. c #33B995",
"f. c #3BB896",
"g. c #38B498",
"h. c #33BC9B",
"j. c #3ABC9B",
"k. c #32BEA1",
"l. c #3ABEA3",
"z. c #47A888",
"x. c #45B587",
"c. c #43B493",
"v. c #49B796",
"b. c #43B69A",
"n. c #43BC9D",
"m. c #4ABA9A",
"M. c #44BEA1",
"N. c #4CBDA2",
"B. c #51BCA0",
"V. c #34C09D",
"C. c #36C3A3",
"Z. c #3BC5A5",
"A. c #3AC8A7",
"S. c #3CC6A9",
"D. c #3CCBAD",
"F. c #3DCCB1",
"G. c #5AD287",
"H. c #4FCF98",
"J. c #56C39E",
"K. c #6FCC88",
"L. c #77D485",
"P. c #66D49A",
"I. c #43C3A4",
"U. c #4AC4A4",
"Y. c #45C6AA",
"T. c #4CC6AA",
"R. c #42C9AC",
"E. c #4CC9AD",
"W. c #54C5A6",
"Q. c #50C6AB",
"!. c #53C9AD",
"~. c #5DCAAE",
"^. c #4AD3A5",
"/. c #43CFB3",
"(. c #4BCEB3",
"). c #53CDB3",
"_. c #5CCDB4",
"`. c #42D2B3",
"'. c #4BD2B3",
"]. c #44D4BC",
"[. c #4DD2B9",
"{. c #56D0B5",
"}. c #53D2BA",
"|. c #5BD4BD",
" X c #64D1AB",
".X c #63CBB3",
"XX c #64D3BB",
"oX c #6BD2BB",
"OX c #71D7BA",
"+X c #4FD7C2",
"@X c #5ED7C2",
"#X c #58D8C3",
"$X c #64D6C1",
"%X c #6DD6C2",
"&X c #62D8C4",
"*X c #6CD9C5",
"=X c #67DBCA",
"-X c #72D8C6",
";X c #73D9C6",
":X c #7ED8C5",
">X c #7BDCCC",
",X c #79DFD0",
"<X c #8EDCAE",
"1X c #82DCCC",
"2X c #88DEC9",
"3X c #84DFD1",
/* pixels */
"R ! ` ' +.O.o.o.+.' ` ' T X.! +.| | | o.X.R R ( ! X.#.' ' | o.! } | +.} | ..R R T ..Y ! ! O. .' ` ! ! +.| Q ! ! ' ! | ' ! X.&.T ",
"#.! ` ` ! T X.! ' ' Q ! X.X.| ! ! | ! | X.R +.( X.&.o.! ' ! +.' ' +.+.} ..X.T T R X.+. .+.! ! Q ` Q ! +.} ' ` ` ' ! ' ' ! &.T ..",
"! } ' +.| ..O.! ' ' ! +.X.&...! ' ! ! o.| &.+.' ..o.| | | | ! ] ` ' +.+.O.X.O...o.! ' +.! ( ( ( ^ ` ` Q ! ! +.! | ! ] ` ^ | | +.",
"+.+.Q +.} | +.! ' ` ' ! +.! ! [ ' ! +.| O.| | ' ! ..| ..| | | [ ` ' ! +.#.O.| +.! | ..X...| ' ` ` +.' ` ^ ' X.X.+.! Q ^ ^ _ ] ' ",
"! Y } | ..&...O.+.' Q } O...T T ..! +.X.X.X.O.! +.o.| ..o.| ..+.' ' ' +.} | | #.| | ......+.! ! ` ` ] ` ' ! T +.!  .T | ' ` ! | ",
"'  .o.!  .T o.#.| +.+.` Q X.T R ..! ! o.&.R ` o.....| ..X.O...| ` ^ ` ' Q ! +.! +.| o...| ! +.| Q ^ ^ ! ..| ! +...T R o.} ` ' ! ",
"' } ! ' +...+.} | ..} ! +.X.T X.| ' ! | &.X.+...+.+.X...O.| | X.#.+.! ! +.! ! ! ! ! ! +.} ! ! Q ` ` ` Q T | ' ` ! T .. .} ! } ! ",
"' ! ` ' +.|  .....+.+.+.| ..X...+.! +.o...+.! ..+.! | ..+.+.O.O.X.R ..` ' | ! ! ! +.! +.| Q ` _ ` ' ! +. .! +.Q ` ..| | ..! ` ` ",
"' ' ` ` } +...} } +.! ! +.| +.! ! +.O.| | | ! +.| } +.| +.| X.O.&.O.:.1.,.{ ! +.+.+.+.! ! ! ! ! ' ' +.o.! ` ! ! ' Q ! +.Y +.] ` ",
"` ` ` ^ ! ! | | | .. .} +.| ! ! ! +.#.#.| | +.+.o...O.| ! ! +.+.#.:.L.2X<X,.! +.! ! +.' ' ! ' ' Q ! +...! ' ` ` ! } ....T ! ^ ' ",
"] ^ ` ' ' ! +...T ......| +.! ! ! +.| | | o.+.....} | | ! ' +.O.O.J OX3X:X<.[ #.+.+.' ` ` ' ' ` ' ' ! } } +.Q ^ Q +.Q +.` ] ( ' ",
"' ] ' +.! ! Q | O. .| | | +.+.! +. .| | X.+.+.X...+.+.! +.+.' | :.P.-X1XoX<.#.#.o.! ' ` ` ! ' ! ! } } +.! +...! Q } T Y ..' ` ' ",
"+.! ! +.! ' | X.| ! } | | | } +.+.+.' #.X.| +.| O.} +.' ! O.X.:.P XX>X:X~.G ! ! +.' ' Q ! +.` ! | ....+.! | Y Y | Q } .. .Q ! ! ",
"+.....| ! +.! | } ! ! ' ' +.+.| +.! +.+...+.+.o.| +.' ' ! | $.P '.=X1XoXU.H { ! ! ` ' +...| ` ! | | | +.! } X.X.X.} ' +.+.' | +.",
"! X...+.} } ! +.} ! +.' ! +.' ' ` ` ` [ ` ' ! ' ' ! ' ! ! ! J ^.#X,X:X~.j.l G ` ' ' ' | X.} ` ! ! ' ! +.+.| ....| | ! ` ' ` } +.",
"+.X.X.X.Y | +.! ! +.} ! ' +.o.+.! ! ' ' ' ' ! +.| +.! | +.{ G.].=X3XOXU.d.q.f F ! | ! ! +.+.+.| | +.| +.! +.| o.| ..+.' ` +.| +.",
"X.O.+.+.+.} } +.' ! +.! +...o.| | O.! ! ! ' ` ' +.! } X.X.G ^.#X,X>X|.Z.u.4.q m #.....! ' ! ! | o.......} +.! ! +.+.! ' ' ' ` +.",
"..` ..X.R +.! ! ' ' ! ! o...X.&.&.X.+.| +.! ` ^ Q Q O.T R P `.&X>X%XE.V.y.h 0 c W ....#.! ' ' } ....o.o.! +.! ' ! +.! ! ! ` ` o.",
"X.R R R R X.O.+.' ' ! +.| o.X.R R O.+.| ..+.! ` ^ ' +.X.%.G.].&X-X_.I.u.w.h 0 2 & +.| | +.! ! .. ...| ! ' ' ! ! ! ` ' ! | ..} [ ",
"[ | R R R ..+.! ' ! +.+.+.} ..&.T +.#.+.} +.|  .! ] ' { P `.+X*XoXE.h.w.3.y 0 , % +.o.o.| } +.| +.} ! ! ! +...X.o.! ! +...X.R | ",
"O.! o.R T } ' ! +.| ..+.+.| ......+.+.+.! ! ..Y | ' ] L ^.].=X>XoXY.d.e.6.y 7 , & o...| | | +.| ' ^ ` ' +...R T &...! Q +.T X.R ",
"R o.+...| ! ' ! | | | +.! ! | ..X.O.+.+.+.| &.T | ' >.H.`.@X>X1XXXZ.h.a.8.k 9 q * &.X.| ..o.+.| ' ] ^ ' ! O.R R &.| #.+.+. .X.R ",
"R Y | Q ' ' ' ! o.| +.+.' +.+.| | | ! ! | ..T X.! ;.G.D.[.-X2X:X!.j.d.a.0.8.k f / X.X.....} +.' ` ` ' ' ' | &.R o.| | | +.! #.R ",
"T | +.! ' ! ! +.o.} ! +.! ! ! ! ! ! ! o.&.R R #.;.K A.F.|.>X1XoXY.h.h.j.v.c.8.C / +.}  ...+.' ' ' Q ! ! ' } ..| | ..X.X.X.! ! ..",
"| ! ! ! ! +.! +...| ! +.+.! ! ' Q ! +. .R R =.>.I ^.D./.|.-X%X).S.Z.Y.T.W.m.8.j F ! } | o.! ` ' ! ! ! +.+.! +.! +.| ..|  ...+.#.",
"` ! +.| | ! ! +.o.o.+.} ! ` ` ` ' ! | o.*.T >. X|.}.`./.{.XX|.(.(.).).!.B.c.k 0 v ~ | } +.! ! +.+.! ! | ....#.| o.O...T R &...[ ",
"' +.| | } ! ! +.! +.! ! W ^ ^ ] ` W ! +.| +.P {.@X#X[.}.|.|.}.}.{.).Q.v.z.2.y 7 : % X.! ` +.| ..! ' ! O.X...| +.| O...o.X.X...! ",
"+.! ! ' ! | +.! o.+.+.! ' ` ` _ ! +.! o.| -.H R.'.[.[.|.&X|.[.(.T.n.s.7.s s y 8 , $ X. .+.| | ..| ' Q | ..+.+.+.+.+.| +.o.| ! +.",
"o.! Q ` ! |  .+.} .. .! ' ' ! +.} | ! | +.N x.h.A.D.'.|.&X}.R.Z.f.9.3.h s s y 8 , @ +.! ! ! O.T o.| ....X.X.O.| ! ' ! +.+.' +.O.",
"..! ' } | O.X.T } +.| +.! +.} } ..| ! } +.B S 9.d.Z.(.@X@X(.C.h.y.5.3.3.s p 9 7 , @ ! ' | &.&.o.X. .Y &.&.&...| +.' [ +.` ' | X.",
"T ! | | | X.X.X.| +.! +.| ! ! +... .! Q +.B 0.9.a.A.(.$X$XE.h.p.i.y.5.5.s p 5 4 : @ ^ ^ ! X. .| +.! ..T R X.&.O.! [ ' ' ` ! ..&.",
"! } O...&...X.R X.} ! ! ..+.+.! | } ! Q ! D s.d.d.C.(.oXoXT.h.i.i.y.5.3.i r 5 > ; & ` ' ! ! ` | | +.| R *.*.R | ( +.! ' ' +.| X.",
"} | +.} | ..R R T ..Y ! ! O. .' ` ! ! +.| D r.d.d.C.E.oXoXT.h.i.a.3.h u u r 5 = ; $ ` ' T X.! +.| | | o.X.R R ( ! X.| ' ' | o.! ",
"' +.+.} ..X.T T R X.+. .+.! ! Q ` Q ! +.} Z 0.a.p.Z.E.oXoX).C.k.g.9.u e e e 4 = ; & Q ! X.X.| ! ! | ! | X.R +.( X.&.o.! ' ! +.' ",
"` ' +.+...X.O...o.! ' +.! ( ( ( ^ ` ` Q ! Z 9.5.p.Z.).%X-X|.D.l.b.t.i e e 8 3 . z ~ ! +.X.&...! ' ! ! o.| &.+.' ..o.| | | | ! ` ",
"` ' ! +.| O.| +.! | ..X...| ' ` ` +.' ` ^ Z 9.5.y.Z.{.-X>X|.F.l.b.s.6.r 8 6 =   O ^ ' ! +.! ! [ ' ! +.| O.| | ' ! O.| ..| | | [ ",
"' ' ' +.} | | #.| | ......+.! ! ` ` ] ` ' K M.d.d.Z.).%XoX).A.l.b.c.0.3.r 6 .   + ' Q } O...T T ..! +.X.X.X.O.! +.o.| ..o.| ..+.",
"` ^ ] ' Q ! +.! +.| o...| ! +.| Q ^ ( ! ..L.).Z.C.S.).XX.XT.A.C.n.v.0.6.r 6 .   $ +.+.` Q X.T R ..! ! o.&.R ` o.....| ..X.O...| ",
"#.+.! ! +.! ! ! ! ! ! +.} ! ! Q ` ` ` Q ..L.).S.C.S.).XX~.U.C.C.n.m.0.k r 4 X   $ ..} ! +.X.T X.| ' ! | &.X.+...+.+.X...O.| | X.",
"X.R ..` ' | ! ! ! +.! +.| Q ` _ ` ' ! +.:.K.T.j.h.Z.).oX.XQ.C.C.I.N.c.6.y 0 4 X # +.+.+.| ..X...+.! +.o...+.! ..+.! | ..+.+.O.O.",
"&.O.+.! ! ! ! +.} } +.! ! ! ! ! ' ' +.o.<.J.M.a.d.Z.{.%XoX).Z.Z.Y.Q.N.0.k g 7 > $ +.! ! +.| +.! ! +.O.| | | ! +.| } +.| +.| X.O.",
"#.+.| +.+.! +.+.! ! +.' ' ! ' ' Q ! +...L W.n.a.d.Z.).%X%X).A.A.Y.E.U.s.8.h 8 > +  . .} +.| ! ! ! +.#.#.| | +.+.o...O.| ! ! +.+.",
"X.&.| ! +.+.+.#.+.+.' ` ` Q ' ` ' ' ! } I !.n.a.d.I._.-X*X[.C.C.l.I.M.b.9.3.t > o E ....| +.! ! ! +.| | | o.+.....} | | ! ' +.O.",
"R R | +.+.| o.#.o.! ' ` ` ! ' ! ! } } +.L.!.j.y.a.n..X-X&X(.C.p.a.a.n.n.s.4.t 4 < U  . .| +.+.! +. .#.| X.+.+.X...+.+.! +.+.' o.",
"X.R &.+.+.o.+.! +.' ' ' ! +.` ! | ....[ L.).f.w.e.v.~.%X|.R.k.i.5.9.b.N.c.6.t 4 > $ } | | | } +.+.+.' #.X.| +.| O.} +.' ! O.X.+.",
"#...X.+.} ....+.! ` ' +...| ` ! | | | ;.P.E.f.w.e.m.~.XX).l.i.5.3.7.t.m.m.0.y 4 > $ ! ' ' +.+.| +.! +.+...+.+.o.| +.' ' ! | &.&.",
"X.+.| +.+.| | ! ' ' ' | X.} ` ! ! ' ! L U.Z.d.w.e.n.W._.E.j.y.4.3.6.7.z.v.c.k 0 > $ +.' ! +.' ' ` ` ` [ ` ' ! ' ' ! ' ! ! ! ..R ",
"&...+.! ! +.} ! ! | ! ! +.+.+.| } +.' Z a.a.9.3.8.c.J.!.E.j.y.5.9.6.s z.z.v.8.y 1 & } ! ' +.o.+.! ! ' ' ' ' ! +.| +.! | +.+.| R ",
"O.O.X.} ! ! +.! | ....! ' ! ! | o...) A 6.3.h h 5.f.U.Q.T.j.u.y.5.6.a d z.z.r.g v ~ +.! +...o.| | O.! ! ! ' ` ' +.! } X.X.X.X.*.",
"o.o.| +.+.+.+.+.| ....#.! ' ' } ....-.A h 3.3.3.9.j.Y.Y.I.f.w.w.5.k a a d z.7.f m ` ! ! o...X.&.&.X.+.| +.! ` ^ Q Q ..T R R X.X.",
"X.+.! ! +.| ..| ! +.| | +.! ! .. ...) V u u h 6.a.f.f.f.s.s.e.w.4.y 9 9 p d k v ~ ' ! +.| o.X.R R O.+.| ..+.! ` ^ ' +.X.R R R &.",
"R &.o.! ! +.X...! +.o.o.| } +.| +.} ) V r 8 u 9.r.9.6.3.7.g.a.4.u y 9 6 9 9 y N ' ! +.+.+.} ..&.T +.#.+.} +.|  .! ] ' ! ..R R &.",
"&.R } ' ` ! | T o.o...| | | +.| ' ^ _ v 5 4 e 3.6.s i y k s.a.3.t 0 0 5 4 4 4 m +.| ..+.+.| ......+.+.+.! ! ..Y | ' ` ' ! &.R O.",
"..X.' ` ` ' } X.X.&.X.| ..o.+.| ' ] ^ m 2 4 6 g g r r r k r.a.6.y 0 7 4 > X : $ | | | +.! ! | ..X.O.+.+.+.| &.T | ' +.! ' +.o.+.",
"+.#.' ' ! ' ! | T X.X.....} +.' ` ` ' ~ n b c w t 5 8 t y 6.d.e.y 7 , > X - x ~ o.| +.+.' +.+.| | | ! ! | ..T X.! +.! +.! ' ! +.",
"} ! ' ! | | | ..X.+.}  ...+.' ' ' Q ! +.' } ! c 1 > 4 8 0 g e.l w 1 : ; z + W +.o.} ! +.! ! ! ! ! ! ! o.&.R R #.! ! ' ! o.+.' ' ",
"` ` ' | ....T T ..+.} | o.! ` ' ! ! ! +.+.! +.~ c < X > 4 0 C B m b b $ ~ ! ! +...| ! +.+.! ! ' Q ! +. .R R &.O...X.+.+.| o.+.' ",
"` ' ' } | ! X.| o.+.| } +.! ! +.+.! ! | ....#.| E $ O O O m / ' ` ! +.| | ! ! +.o.o.+.+.! ` ` ` ' ! | o.*.T ..X.R R | ! ..+.! ! ",
"^ ] ` ^ ' ' ' #.o.+.X.! ` +.| ..! ' ! O.X...| +.| O...o.X.X...! ' +.| | } ! ! +.! +.! ! W ^ ^ ] ` W ! +.| | o.O.R R +.! +.| ! ` ",
"[ #.| ! ' ..&.o.! +.X. .+.| | ..| ' Q | ..+.+.+.+.+.| +.o.| ! +.+.! ! ' ! | +.! o.+.+.! ' ` ` _ ! +.! o.| ! +...X.| +.! | ! } ! ",
"+.o.o.+.' ` X.o.! +.+.! ! ! O.T o.| ....X.X.O.| ! ' ! +.+.' +.O.o.! Q ` ! |  .+.} .. .! ' ' ! +.} | ! | +.} | | ' ..+.! +.O.O...",
"| ..+.! ! +.Q ' ' ! ! ' | &.&.o.X. .Y &.&.&...| +.' ! +.` ' | X...! ' } | O.X.T } +.| +.! +.} } ..| ! } +.! } ! +.| ' ` ! +.! #.",
"&.T ! ' ! +.! ' ' ' ^ ^ ! X.o.| +.! ..T R X.&.O.! ! ' ' ` [ ..&.T ! | | | X.X.X.| +.! +.| ! ! +... .! Q +.+.! Q | ! ! ! } +.+...",
"R X.| ! ! ' [ ! | +.` ' ! ! ` | | +.| R *.*.R | ( +.! ' ` +.o.X.! } O...&...X.R X.} ! ! ..+.+.! | } ! Q ! ` ' ' ` ' ! ' +.| O.X."
};
