/* XPM */
static char *_adb092543fd4aaaad4f176257273424crRc5vZQedXwJu5r[] = {
/* columns rows colors chars-per-pixel */
"16 16 59 1 ",
"  c #181B2F",
". c #181C2F",
"X c #181C30",
"o c #1B242C",
"O c #1D2130",
"+ c #3A3936",
"@ c #3A3F38",
"# c #3C4733",
"$ c #3C4833",
"% c #4D5A36",
"& c #576638",
"* c #586738",
"= c #635543",
"- c #636548",
"; c #636551",
": c #8D6C51",
"> c #8D7053",
", c #A07C57",
"< c #8D8359",
"1 c #A08B5E",
"2 c #A08C5E",
"3 c #B1855B",
"4 c #BC8C5E",
"5 c #8D8863",
"6 c #A09660",
"7 c #BE9261",
"8 c #BC9662",
"9 c #B19863",
"0 c #BE9E66",
"q c #B1A867",
"w c #BCA769",
"e c #BCB26B",
"r c #BEB36C",
"t c #BEB46C",
"y c #FFC275",
"u c #FFC475",
"i c #FECA78",
"p c #FFCF7A",
"a c #FFD17B",
"s c #FFD37C",
"d c #FED77E",
"f c #FFDB7F",
"g c #FFDF7F",
"h c #FEE17F",
"j c #FFDF80",
"k c #FFDF86",
"l c #FFE083",
"z c #FFE782",
"x c #FFE386",
"c c #FFEA83",
"v c #FFEC83",
"b c #FFEB84",
"n c #FFE189",
"m c #FFEE8B",
"M c #FFF186",
"N c #FFEF97",
"B c #FFF094",
"V c #FFFE94",
"C c #FFF199",
/* pixels */
"**&*%OXXX.O%*&**",
"**#o@qreee9@o$**",
"&#;56hccczd1>=$&",
"*o5Vbnnllxljf>o*",
"%@6bkNCmmBcdj1+%",
"OqhnNxxxxxjuap3O",
"XtcnCxlllljypj0 ",
".wllmxlllljypd8 ",
".wlgvllllljypa4 ",
"Xtbgvllllljyps4 ",
"Oqljcjjjjjjypi3O",
"%@2jduyyyyyap,+%",
"*o<Mfpppppppi:o*",
"&#-<1ddaasi,:=$&",
"**#o@974443+o$**",
"**&*%O    O%*&**"
};
