/* XPM */
static char *_fb6cda94d524009ded6c27cf5d98973nFCrJbebYVDwShbp[] = {
/* columns rows colors chars-per-pixel */
"64 64 171 2 ",
"   c #000000",
".  c #090C03",
"X  c #0F1506",
"o  c #111605",
"O  c #161F09",
"+  c #181F09",
"@  c #1D1D1D",
"#  c #1A2206",
"$  c #172008",
"%  c #1E290B",
"&  c #202B0A",
"*  c #26350D",
"=  c #2A370B",
"-  c #2D3B0A",
";  c #252524",
":  c #292B23",
">  c gray16",
",  c #2F3325",
"<  c #333928",
"1  c #3D3D3D",
"2  c #32420D",
"3  c #3C4D0E",
"4  c #3E500C",
"5  c #364B11",
"6  c #394C11",
"7  c #3E5316",
"8  c #3B442A",
"9  c #465A0E",
"0  c #435911",
"q  c #425A16",
"w  c #4F670F",
"e  c #51670F",
"r  c #4C6312",
"t  c #4D691A",
"y  c #536D15",
"u  c #567113",
"i  c #5E7B16",
"p  c #55741C",
"a  c #597619",
"s  c #5C7C1E",
"d  c #617E12",
"f  c #434C2A",
"g  c #49562C",
"h  c #4F453F",
"j  c #51453F",
"k  c #5D473C",
"l  c #5F493D",
"z  c #4E5D32",
"x  c #614B3F",
"c  c #52642F",
"v  c #5C7D20",
"b  c #566834",
"n  c #5C713A",
"m  c #657B37",
"M  c #61773C",
"N  c #697F3B",
"B  c #444444",
"V  c #4C4643",
"C  c #474846",
"Z  c #494946",
"A  c #4B4B4A",
"S  c #524741",
"D  c #544944",
"F  c #5A4C45",
"G  c #574E49",
"H  c #5B4F49",
"J  c #53554E",
"K  c #5D514B",
"L  c #53584B",
"P  c #585D4E",
"I  c #515151",
"U  c #654D41",
"Y  c #684F43",
"T  c #665044",
"R  c #6B5246",
"E  c #62544D",
"W  c #6E5448",
"Q  c #71574A",
"!  c #755A4D",
"~  c #785D4F",
"^  c #635750",
"/  c #665852",
"(  c #695951",
")  c #7A5E50",
"_  c #7D6153",
"`  c #816354",
"'  c #5F801E",
"]  c #678616",
"[  c #6C8B13",
"{  c #62831A",
"}  c #6A8D1D",
"|  c #6F9019",
" . c #739515",
".. c #7B9E17",
"X. c #71941C",
"o. c #759A1C",
"O. c #799D1A",
"+. c #7EA115",
"@. c #7EA51E",
"#. c #668A20",
"$. c #6E9422",
"%. c #6E972B",
"&. c #759E25",
"*. c #6C833A",
"=. c #6E8839",
"-. c #708437",
";. c #748F37",
":. c #71873A",
">. c #748C3C",
",. c #788E3C",
"<. c #769136",
"1. c #799535",
"2. c #7D9935",
"3. c #76933B",
"4. c #79953C",
"5. c #7D9A3A",
"6. c #7AA221",
"7. c #7EA927",
"8. c #7AA62A",
"9. c #7CA829",
"0. c #6F8644",
"q. c #728A41",
"w. c #749241",
"e. c #87AD16",
"r. c #88AE17",
"t. c #80A71C",
"y. c #84AA1A",
"u. c #87B11F",
"i. c #8BB41C",
"p. c #91BA1A",
"a. c #819D39",
"s. c #83AE23",
"d. c #87B121",
"f. c #8CB925",
"g. c #85B32A",
"h. c #89B92B",
"j. c #91BE21",
"k. c #84A138",
"l. c #8BBD38",
"z. c #96C21D",
"x. c #ADDF1F",
"c. c #AFE11F",
"v. c #B1E21E",
"b. c #8EC02A",
"n. c #94C427",
"m. c #98C724",
"M. c #97CC2E",
"N. c #9ACE2E",
"B. c #9DD22C",
"V. c #8FC637",
"C. c #8CC43A",
"Z. c #91C735",
"A. c #95CB33",
"S. c #98CE31",
"D. c #90C738",
"F. c #9AD030",
"G. c #A3D627",
"H. c #A2D727",
"J. c #A4D727",
"K. c #A7DA25",
"L. c #A9DB23",
"P. c #ABDD22",
"I. c #ADDF21",
"U. c #A8DB24",
"Y. c #A9DC24",
"T. c #A1D529",
"R. c #A0D42A",
"E. c #A4D729",
"W. c #A4D828",
"Q. c #AEE020",
"!. c #B0E120",
/* pixels */
"v.B.A.S.R.Y.U.U.R.S.A.S.c.I.B.R.K.K.K.U.I.v.v.C.B.I.W.S.S.K.U.B.E.L.H.H.K.P.v.v.c.P.x.B.B.Y.L.S.A.B.B.R.K.N.B.B.S.B.K.S.B.I.Q.c.",
"W.B.A.A.B.c.I.B.S.S.N.B.I.I.K.B.B.K.B.K.I.v.R.C.I.Q.U.B.S.B.R.S.S.B.R.H.P.I.c.c.v.I.R.L.R.B.B.N.A.N.B.R.H.S.Z.A.S.B.S.S.B.Q.c.P.",
"B.H.S.R.K.P.Y.B.S.S.B.R.I.Q.P.B.S.B.B.U.K.Q.R.S.P.U.K.K.K.K.N.l.l.Z.B.H.P.I.Y.P.U.B.S.R.B.C.C.C.V.A.A.N.B.B.R.B.K.B.D.A.V.K.K.R.",
"R.R.N.R.E.K.R.B.S.A.S.B.R.B.B.F.S.B.R.K.Y.K.K.S.B.P.K.P.K.R.<.B B M M.R.K.Y.K.R.B.K.P.I.P.K.S.A.A.R.S.A.V.S.I.I.R.B.N.V.V.Z.A.S.",
"B.x.J.K.P.Q.P.Y.R.S.N.H.Y.P.c.c.P.B.R.I.I.I.Y.B.R.U.K.P.U.1.B B B B N R.E.K.K.W.K.K.P.P.P.R.B.B.A.A.D.A.S.B.c.R.B.L.c.K.S.A.B.K.",
"S.L.U.B.L.c.U.W.K.R.R.A.N.I.c.v.P.B.B.U.Q.v.A.U.P.P.K.P.I.2.B B B B M Z.N.B.R.B.R.K.U.P.K.B.R.K.N.V.V.B.P.K.B.R.P.c.v.U.J.A.S.B.",
"S.H.B.S.R.P.R.E.K.P.H.B.R.I.c.I.K.S.B.K.Q.I.R.P.R.R.I.P.J.<.B B B 1 B *.R.B.B.B.B.B.B.R.H.B.B.N.A.A.A.N.c.K.S.A.B.c.P.L.H.B.H.B.",
"S.B.A.S.R.K.L.P.P.R.R.R.K.P.I.P.R.B.R.U.P.R.B.P.R.B.K.P.5.Z B B B B B N S.K.B.B.B.R.B.R.K.N.A.Z.A.S.B.R.L.B.R.N.A.P.K.K.P.B.A.A.",
"S.S.A.A.H.R.P.J.H.R.B.B.R.K.R.B.B.R.Y.K.K.K.B.R.K.J.R.K.5.Z Z B B B B *.B.B.B.R.R.R.R.B.B.B.B.B.S.S.R.K.B.A.B.B.S.N.B.R.x.R.D.A.",
"A.A.A.V.B.B.K.K.K.P.L.J.R.K.B.B.B.R.W.W.K.K.R.R.U.P.Y.K.4.Z D D B B B N N.B.R.R.B.B.R.S.S.B.S.S.N.B.R.U.B.S.A.A.B.H.P.P.c.B.V.S.",
"D.V.A.S.S.B.R.P.c.P.P.P.K.R.B.B.B.R.K.K.K.U.R.P.P.J.K.K.4.Z D D B B B B *.R.H.W.R.R.S.A.A.S.S.A.S.S.B.H.H.R.N.V.N.R.N.R.A.D.C.S.",
"S.D.S.R.B.B.N.K.Y.L.K.K.K.R.R.B.R.L.K.K.I.R.R.I.P.R.R.N.3.Z D F B S S B *.K.U.K.U.B.S.A.A.B.S.B.B.H.H.R.B.R.P.B.N.H.c.x.P.S.A.S.",
"R.B.B.R.B.S.K.I.K.B.H.K.K.K.E.R.R.R.S.W.I.K.R.K.Y.E.R.3.Z Z D F B S D B *.U.R.B.R.S.S.N.B.R.A.B.K.P.P.R.B.K.x.x.K.N.H.P.L.N.B.B.",
"R.P.P.K.B.R.B.K.H.B.B.S.S.R.R.K.R.B.R.R.P.R.R.U.K.R.S.3.Z D Y F B S D B *.L.P.R.B.A.S.R.P.K.A.B.K.K.K.R.B.E.I.I.I.E.S.R.R.S.K.R.",
"B.I.P.R.H.H.B.R.H.B.R.S.B.R.S.S.A.A.A.F.A.S.B.S.S.B.S.3.B S l j B S S B B :.K.B.S.S.S.K.I.H.A.B.B.S.B.R.R.K.P.P.K.K.B.A.S.A.H.R.",
"R.I.I.I.x.K.R.B.B.R.H.B.S.R.U.R.B.B.S.S.S.S.B.R.K.R.N.3.B V k j B V k D B :.H.B.B.K.B.B.R.R.R.K.K.R.K.R.B.R.K.U.K.P.R.S.A.R.K.R.",
"I.Y.R.R.R.E.E.R.S.B.R.B.R.P.U.K.K.Y.B.B.B.S.A.S.R.B.2.Z B S l j B V x F B *.N.B.K.P.P.B.S.B.B.K.U.P.P.P.E.R.B.B.R.R.B.S.S.S.A.R.",
"P.A.P.I.v.R.B.B.S.S.B.B.U.P.I.Q.Q.I.R.K.R.B.A.V.N.N.2.B S x x S B S Y F Z B :.R.K.P.P.W.B.S.S.H.P.P.U.U.B.R.B.S.B.R.B.B.B.A.A.U.",
"I.v.v.v.v.I.Y.R.S.S.B.R.K.U.I.v.v.Y.R.K.P.R.B.A.V.Z.;.B S x l S B S x Y F Z *.R.B.R.K.K.R.B.B.P.L.P.K.B.S.S.B.B.B.A.S.B.K.P.E.F.",
"F.K.v.v.v.P.R.B.S.B.R.R.R.J.P.Q.c.R.W.R.J.R.K.L.B.>.B B S l j B B S x x F Z B *.N.R.U.U.K.E.R.K.R.H.B.B.B.R.P.I.U.B.B.R.P.I.v.K.",
"Y.B.U.v.c.J.S.B.R.K.P.R.R.K.P.P.P.R.R.R.B.B.P.x.R.=.B S x l j B V k l l U F Z B :.U.P.K.K.K.R.K.S.V.A.S.R.P.v.c.Q.P.B.N.R.c.I.v.",
"v.U.R.P.K.B.S.B.K.K.K.R.B.B.K.P.I.Y.R.R.R.K.Q.c.1.B B D U x S B V l x x U Y F B -.L.I.K.P.U.R.K.S.D.V.S.B.Y.v.v.c.K.W.R.R.L.I.v.",
"v.x.K.N.S.S.S.B.U.K.R.R.S.R.R.K.K.K.B.B.K.P.c.L.>.B D Y Y U S B B S x Y Y Y F Z B -.K.P.P.J.R.S.A.A.S.S.S.K.Q.v.U.K.K.K.R.B.W.v.",
"c.K.R.B.S.B.B.R.U.J.B.R.B.B.B.B.B.B.B.U.Q.v.v.2.B Z F Y x x S B B S x Y Y Y Y F Z B :.L.P.R.S.S.S.N.B.B.S.E.P.K.K.P.I.I.I.B.B.P.",
"K.B.B.B.B.R.B.R.P.K.B.R.R.B.B.S.N.B.R.L.v.v.L.<.B G W Y x l h B B S x Y Y Y R W H B *.H.U.B.A.S.B.B.B.R.R.B.R.B.R.K.P.K.L.P.R.W.",
"A.B.R.K.K.B.B.R.U.U.R.H.B.A.A.A.S.B.K.U.!.c.2.B Z F R U l j B B B S Y U U Y T W E Z B *.N.B.B.R.R.B.B.K.P.P.W.K.U.Y.P.c.v.Q.P.F.",
"S.R.K.K.H.B.B.R.B.R.B.B.M.V.V.D.A.M.B.R.K.E.<.B G Q R x k S B B B S x x U Y R W Q E Z B *.R.K.I.B.S.B.Y.I.P.K.R.K.Y.P.U.I.I.P.B.",
"R.B.B.S.B.K.R.B.U.R.R.B.S.A.A.Z.B.R.B.U.J.;.B Z K Q R x k j B B B h x Y Y Y T W Q Q K B *.R.U.P.K.S.N.K.P.R.R.R.R.R.K.R.U.K.B.R.",
"U.B.N.A.B.K.L.R.H.P.L.B.S.S.B.R.E.K.B.K.2.Z Z K ! Q R x k j B 1 1 B S Y Y Y Y R W Q E Z Z N J.v.U.K.P.P.I.I.Y.K.B.S.B.R.R.S.R.Y.",
"P.B.S.J.K.Y.I.c.H.R.K.R.B.R.J.H.P.K.B.R.3.Z G Q Q Q Y x S B 1 @ @ B S T R R R R W W Q E Z Z :.H.I.L.x.Q.Q.Q.P.K.R.S.F.R.A.S.K.I.",
"c.B.K.K.K.I.I.I.K.R.B.R.K.B.B.R.P.L.N.>.Z Z K ~ Q W Y x S B ;   @ B D W W R R W W Q Q ! E A Z :.N.B.P.c.v.I.Q.Y.B.F.S.S.A.B.P.Q.",
"B.E.Y.P.Q.P.I.v.I.H.B.B.P.R.R.B.R.N.3.Z Z K ! ! ! W Y U S B ;   @ B D R W W W W W Q ! ~ ) E A A >.R.K.v.!.!.v.K.C.R.B.S.S.R.K.I.",
"E.K.R.H.K.P.v.v.c.P.x.B.B.Y.L.A.q.A A A K ! ! Q Q W Y F B 1 ;   @ 1 B D R R W W W Q Q ! ) ) E A >.K.K.U.I.v.v.C.B.I.K.S.S.K.U.B.",
"S.R.R.H.P.I.c.c.v.I.R.L.R.B.B.4.A A A E ~ ! Q Q Q W Y F Z ;       @ B D Y Y T W W Q ! ! ) _ ( A :.K.B.K.I.v.R.C.I.Q.U.B.S.B.R.S.",
"A.S.R.R.P.I.Y.P.U.B.S.R.B.C.C.w.A ^ _ ~ ! ! ! Q R R T F Z ;       @ B D U U T W W Q ! ~ ) ) ( A q.B.B.U.K.Q.R.S.P.U.K.K.K.K.B.A.",
"A.S.B.R.K.Y.K.R.B.K.P.I.P.K.S.w.A ^ ) ! ! ! ! Q W R K Z B ;       @ B B D Y R W W Q ! ~ ) _ ( I q.B.R.K.Y.K.K.S.B.Y.K.P.K.K.K.F.",
"S.S.S.R.E.K.K.W.K.K.P.P.P.R.B.4.A E ) ~ ~ ! ~ Q W R H Z >           @ Z F R W R W Q ! ~ ) ) ( I ,.B.R.I.I.I.Y.B.R.U.K.P.U.K.P.R.",
"A.V.D.S.N.B.R.B.H.K.U.P.K.B.R.2.A E _ ~ ! ! ! W R R K Z >           @ Z F T R W W Q Q ! ~ ) ( I ,.B.B.U.Q.v.A.U.P.P.K.P.I.Y.P.K.",
"W.R.B.B.R.B.B.B.B.B.B.R.H.B.B.3.A ^ _ ~ ~ ~ ! W Y F Z B ;           @ B Z G R R W Q ! ! ! ! E I ,.S.B.K.Q.I.R.P.R.R.I.P.Y.K.K.I.",
"I.v.P.A.S.K.B.B.B.R.B.R.K.N.D.q.A E ) ! ! Q Q W H Z Z : . . . . . . . ; Z G R W Q Q ! ! ~ ) ( I q.B.R.U.P.R.B.P.R.B.K.P.R.R.Y.Y.",
"Q.Y.R.B.B.B.B.R.H.H.R.B.B.B.4.I I ^ ~ ~ ! Q Q R F Z , o o o X X o o o : C Z K Q ! Q Q ! ~ ) / I q.R.Y.K.K.K.B.R.K.J.R.K.R.K.I.Y.",
"W.R.K.R.R.B.R.R.B.B.R.S.S.B.4.I ^ ) ) ~ ~ ~ Q H Z C < # # # O + + $ $ $ , Z K Q Q ! ! ! ! ) / I q.R.W.W.K.K.R.R.U.P.Y.K.B.B.R.R.",
"I.Q.K.B.R.R.R.W.R.R.S.A.A.N.w.I ^ ~ ) ) ! ! E Z Z < & & % % % % % % % & < Z A K Q ! ! ! ) ) / I q.R.K.K.K.U.R.P.P.J.K.K.B.S.R.Y.",
"v.v.K.R.R.K.U.W.U.B.S.A.A.N.w.I ^ ) ) ) ! Q K Z 8 = - - - * * = * * * = = < A G W Q ! ! ! ! E I >.L.K.K.I.R.R.I.P.R.R.B.R.R.S.U.",
"I.v.Q.R.R.U.R.B.R.S.S.S.B.5.I I / _ ) ) ! K Z Z 8 2 2 2 2 - 2 2 2 2 2 2 2 8 A A K Q ! ! ~ ) / I >.R.S.W.I.K.R.K.Y.E.R.S.B.Y.I.R.",
"W.P.I.R.H.P.P.R.B.A.S.R.P.a.I / _ _ ~ ~ E Z Z f 4 3 6 6 3 5 3 6 3 4 3 3 6 3 f A K Q ! ~ ) ) ( I q.B.R.R.P.R.R.U.K.R.S.S.B.K.Q.Q.",
"I.R.K.R.R.K.K.B.S.S.S.K.I.5.I / _ _ ) ! E Z g 9 9 0 0 7 7 7 0 0 0 9 9 0 0 0 g A A K ~ ) _ _ ( I 0.A.A.F.A.S.B.S.S.B.S.B.B.B.P.v.",
"Q.P.R.B.B.R.J.B.B.K.B.B.B.4.I / _ ) ~ E Z C g r r w r q q r r r r e w w e r r g A A E ) _ _ ( I 0.S.S.S.S.S.B.R.K.R.B.K.R.R.K.v.",
"Y.Y.I.E.B.B.R.B.K.P.P.B.4.I I / _ ~ E Z Z z y y y y t t t t t y u u y y y y y y z A K ! ~ ) ( I I ,.B.B.B.S.A.S.R.B.E.I.I.I.I.!.",
"U.U.K.R.R.R.R.R.K.P.P.W.4.I / _ _ _ E B z a a p a a a a a p p i i p d d d a a a c A A K ~ _ _ ( I 3.R.K.R.B.A.V.N.N.P.c.v.v.I.I.",
"I.R.B.B.R.K.P.K.B.R.K.H.4.I / _ _ E B Z c s { { ' v s { ] ] { ' [ [ [ [ [ [ ] { s b J I / _ _ ( I ,.R.K.P.R.B.A.V.S.R.I.v.v.v.Q.",
"v.Q.U.B.B.R.I.P.B.R.U.a.I I / _ E Z Z b } }  . .X.} } }  . . .| #.X. . . . .} } #.} M I / _ ` ( I ,.W.R.E.R.K.L.B.D.S.B.P.v.v.Q.",
"Q.v.H.S.A.B.K.c.U.U.P.a.I / _ E Z Z b $.o.O.+.+.+.O.X.$.o.+...+.O.X.O.+.+.o.$.$.o.O.m J I / _ ( I q.R.R.B.B.P.x.K.S.A.S.B.Q.v.Y.",
"P.I.S.A.A.S.H.I.I.Q.U.4.I / / Z A n %.&.6.t.e.r.y.t.@.@.6.t.y.e.e.t.6.y.t.&.&.&.@.t.@.-.J I ^ ( I ,.R.R.R.K.Q.c.K.S.R.B.S.R.U.R.",
"R.W.S.S.B.S.B.K.c.I.k.I I I A A M 8.7.9.9.u.i.p.u.u.u.u.s.s.d.p.p.i.u.7.9.8.8.s.u.d.s.s.*.J I I I ,.B.B.K.P.c.I.B.R.B.R.B.S.B.R.",
"E.B.S.B.K.K.K.P.I.R.5.I I J L N g.g.f.f.g.f.z.j.f.z.z.z.z.f.f.z.z.j.f.h.g.f.f.f.p.f.f.f.f.;.J I I q.B.U.Q.v.v.W.B.B.S.B.U.R.S.S.",
"A.A.S.K.P.P.c.c.P.R.5.I J :.h.h.b.n.M.R.R.B.R.B.R.K.P.K.L.P.R.W.K.B.B.B.B.R.M.n.m.m.b.n.n.b.3.P P 3.R.L.v.v.Q.Y.P.I.R.R.K.U.R.S.",
"A.S.S.J.K.B.I.K.U.R.k.P ,.M.M.N.B.B.B.K.P.P.W.K.U.Y.P.c.v.Q.P.F.A.B.R.K.K.B.B.R.U.U.R.R.B.A.A.A.S.B.K.U.!.c.P.I.v.v.K.B.P.R.B.B.",
"V.D.A.V.S.S.S.W.U.R.I.B.A.R.K.P.B.S.B.Y.I.P.K.R.K.Y.P.U.I.I.P.B.S.R.K.K.H.B.B.R.B.R.B.B.M.V.V.D.A.M.B.R.K.K.U.Y.v.v.R.B.R.K.B.A.",
"F.W.K.B.S.P.Q.U.B.R.I.L.R.K.K.P.K.S.N.K.P.R.R.R.R.R.K.R.U.K.B.R.R.B.B.S.B.K.R.B.U.R.R.B.S.A.A.Z.B.R.B.U.K.B.R.P.I.K.R.B.K.B.H.B.",
"R.U.U.R.S.A.I.U.B.R.R.B.B.B.Y.c.U.K.P.P.I.I.Y.K.B.S.B.R.R.S.R.Y.U.B.N.A.B.K.L.R.H.P.L.B.S.S.B.R.E.K.B.K.R.E.K.K.S.P.R.B.R.Y.Y.P.",
"K.P.R.B.B.R.N.S.S.B.B.S.K.Q.Q.U.I.L.x.Q.Q.Q.P.K.R.S.B.R.A.S.K.I.P.B.S.J.K.Y.I.c.H.R.K.R.B.R.J.H.P.K.B.H.R.B.E.B.R.K.S.A.B.R.B.W.",
"Q.c.B.S.B.R.B.S.S.S.V.V.B.I.K.K.R.B.P.c.v.I.Q.Y.B.B.S.S.A.F.P.Q.c.B.K.K.K.I.I.I.K.R.B.R.K.B.B.R.P.L.B.N.R.R.B.N.K.B.B.B.E.R.R.P.",
"v.I.K.B.B.S.F.B.K.R.A.S.B.B.A.K.K.R.K.v.!.!.v.K.C.R.B.S.A.R.U.I.B.E.Y.P.Q.P.I.v.I.H.B.B.P.R.R.B.K.J.B.N.B.A.S.S.A.S.B.S.R.K.Y.I."
};
