/* XPM */
static char *eb7e8d5d423143a5ec385079b2e1269dW7pKPjH22LspjNVi[] = {
/* columns rows colors chars-per-pixel */
"16 16 230 2 ",
"   c #0A0B00",
".  c #0B0C00",
"X  c #080F00",
"o  c #091000",
"O  c #161700",
"+  c #111800",
"@  c #141B00",
"#  c #191900",
"$  c #1B2500",
"%  c #1E2800",
"&  c #232400",
"*  c #212700",
"=  c #252400",
"-  c #232900",
";  c #212A00",
":  c #222B00",
">  c #272900",
",  c #2A2C00",
"<  c #282F0D",
"1  c #372B05",
"2  c #3B2F00",
"3  c #392D07",
"4  c #243103",
"5  c #273406",
"6  c #2E3200",
"7  c #2F3F00",
"8  c #293108",
"9  c #29300E",
"0  c #303400",
"q  c #393102",
"w  c #3E3202",
"e  c #393007",
"r  c #3B3209",
"t  c #3D3510",
"y  c #3C3316",
"u  c #3E3518",
"i  c #463200",
"p  c #483400",
"a  c #403C00",
"s  c #413D00",
"d  c #4C3C00",
"f  c #4E3E00",
"g  c #413411",
"h  c #423512",
"j  c #403813",
"k  c #304000",
"l  c #304100",
"z  c #324300",
"x  c #3A4500",
"c  c #3E4700",
"v  c #384A00",
"b  c #394B01",
"n  c #364409",
"m  c #38460B",
"M  c #534100",
"N  c #544200",
"B  c #504600",
"V  c #514700",
"C  c #585000",
"Z  c #585008",
"A  c #595109",
"S  c #425214",
"D  c #425116",
"F  c #4F5815",
"G  c #505916",
"H  c #4A6000",
"J  c #4D6300",
"K  c #526400",
"L  c #556700",
"P  c #706400",
"I  c #716500",
"U  c #716501",
"Y  c #7B6F0B",
"T  c #797400",
"R  c #7A7500",
"E  c #7C700C",
"W  c #716616",
"Q  c #596E21",
"!  c #5E7024",
"~  c #686039",
"^  c #6B633C",
"/  c #66703E",
"(  c #67713F",
")  c #6E735D",
"_  c #727D52",
"`  c #747F54",
"'  c #71745F",
"]  c #76861B",
"[  c #77871C",
"{  c #768721",
"}  c #71862B",
"|  c #7D8F2B",
" . c #7F8F2C",
".. c #778B34",
"X. c #788A34",
"o. c #989D29",
"O. c #999E2A",
"+. c #8A9930",
"@. c #8C9B32",
"#. c #9F9130",
"$. c #A09231",
"%. c #A19233",
"&. c #A39435",
"*. c #A19438",
"=. c #A29539",
"-. c #94A03C",
";. c #97A33F",
":. c #B0B825",
">. c #B1B926",
",. c #B2C120",
"<. c #B3C322",
"1. c #C8CB3E",
"2. c #8B9942",
"3. c #8D9B44",
"4. c #9D9145",
"5. c #9F9347",
"6. c #888157",
"7. c #A79A4B",
"8. c #A99C4D",
"9. c #9FAE4F",
"0. c #B2A443",
"q. c #B3A544",
"w. c #A6B24E",
"e. c #A0AF52",
"r. c #B7AC50",
"t. c #ACBC51",
"y. c #9C9676",
"u. c #939F7B",
"i. c #9E9878",
"p. c #9DB16C",
"a. c #AFB865",
"s. c #B1BA67",
"d. c #B6BE73",
"f. c #C1B94A",
"g. c #C2BA4B",
"h. c #C5B76E",
"j. c #C5BF69",
"k. c #C6B86F",
"l. c #C6BE6D",
"z. c #C7BF6E",
"x. c #C9BE6F",
"c. c #C9BB70",
"v. c #CEBE73",
"b. c #BFC94E",
"n. c #B4C751",
"m. c #B7CA54",
"M. c #B3C45E",
"N. c #B4C55F",
"B. c #B1C85E",
"V. c #B3C162",
"C. c #B5C364",
"Z. c #B4CB61",
"A. c #B9C176",
"S. c #CBCE41",
"D. c #D6DF44",
"F. c #C0CC50",
"G. c #D9E247",
"H. c #CAC06B",
"J. c #CEC26E",
"K. c #CBC070",
"L. c #CEC075",
"P. c #A2A88E",
"I. c #A7A495",
"U. c #A8A594",
"Y. c #A4AA90",
"T. c #A0A996",
"R. c #A2AB98",
"E. c #D3CA85",
"W. c #D5CC87",
"Q. c #C5C9AE",
"!. c #C6CAAF",
"~. c #C3C5B7",
"^. c #C7C4BD",
"/. c #C8C5BE",
"(. c #C6C8BA",
"). c #C7D4BA",
"_. c #C8D2B9",
"`. c #CECEC2",
"'. c #D1D1C5",
"]. c #E5DFCF",
"[. c #EBDECB",
"{. c #DAE1CF",
"}. c #DBE2D0",
"|. c #ECE0C6",
" X c #ECE1CD",
".X c #EBE5CD",
"XX c #EEE6CF",
"oX c #F0E2C8",
"OX c #E0E3D0",
"+X c #E9E3D3",
"@X c #ECE0D2",
"#X c #EDE5D0",
"$X c #EFE7D2",
"%X c #E5E8D7",
"&X c #E6EED7",
"*X c #EFE8D5",
"=X c #E5E7DA",
"-X c #E9E0D9",
";X c #EAE1D8",
":X c #E6E9D8",
">X c #E6E8DA",
",X c #E6E8DD",
"<X c #F2EBD8",
"1X c #FAF5DF",
"2X c #ECEAED",
"3X c #FCF6E0",
"4X c #F3F8E1",
"5X c #F5FAE3",
"6X c #F5FAE4",
"7X c #F5F4EF",
"8X c #FAF4E8",
"9X c #FBF5E9",
"0X c #F7F9EB",
"qX c #F8FBEA",
"wX c #EFEDF2",
"eX c #F4F5F0",
"rX c #F5F6F1",
"tX c #FCF7F3",
"yX c #FCF7F4",
"uX c #F2FBF6",
"iX c #FFFFF3",
"pX c #F7FBFA",
"aX c #F3FFFF",
"sX c #F4FFFF",
"dX c #FAFFFB",
"fX c #FFFAFF",
"gX c #FFFBFF",
"hX c #FBFFFD",
"jX c #FFFCFF",
"kX c #FCFFFF",
/* pixels */
"kX7X#X|.[.8XhXsXaXhX8X XoX#X7XkX",
"rXU.r w 3 i.!.)._.!.y.1 2 e I.rX",
"].t x.*.c.Z 6 x c 0 Z c.*.K.j +X",
"XXq r.P 0.C O.F.b.O.C q.P r.q .X",
"3X6.W Y P T >.<.<.>.T P E W 6.1X",
"*X~ 4.%.#.f.1.D.G.S.f.%.&.4.^ <X",
"@Xh 8.f p N V s s V M i f 7.h @X",
"-Xy E.H.v.h.l.j.j.l.k.L.J.W.u -X",
"pX~.. O = > - - - * , * #   (.dX",
"uXT.% F A.a.C.N.M.V.s.d.G $ R.uX",
"}.8 3.] ;.w.@.t.t.+.w.;.[ 2.8 {.",
"5X/  .n.L { z 9.e.7 { K m.| / 4X",
"&X_ X.B.J } z S S z } H Z...` &X",
">X. m v ! p.5 u.u.4 p.Q v n o >X",
"yX^.'.) @ < Y.6X6XP.9 + ' `./.tX",
"gXkXkX2X,XOX0XiXiXqX%X=XwXgXkXgX"
};
