/* XPM */
static char *e871dc0d6b8b43f692d42158f00b3c56QdWZaic8h8SZEydX[] = {
/* columns rows colors chars-per-pixel */
"64 64 135 2 ",
"   c #010000",
".  c #0C0303",
"X  c #0E0808",
"o  c #130404",
"O  c #1C0606",
"+  c #140A0A",
"@  c #1C0A0A",
"#  c #131A05",
"$  c #181E07",
"%  c #161E08",
"&  c #1F1E0B",
"*  c #1D1212",
"=  c #1D1C11",
"-  c #220707",
";  c #280707",
":  c #240A0A",
">  c #2A0B0B",
",  c #310909",
"<  c #241313",
"1  c #281313",
"2  c #192105",
"3  c #22250E",
"4  c #35230D",
"5  c #27360E",
"6  c #29370D",
"7  c #2C3A0A",
"8  c #363D0F",
"9  c #3D3F0F",
"0  c #242416",
"q  c #2D2D17",
"w  c #322F19",
"e  c #253410",
"r  c #34450E",
"t  c #3A470E",
"y  c #37480B",
"u  c #39490A",
"i  c #314310",
"p  c #394510",
"a  c #3C5316",
"s  c #424C0F",
"d  c #465A0F",
"f  c #4C5C0F",
"g  c #474311",
"h  c #474C15",
"j  c #43451D",
"k  c #415613",
"l  c #495717",
"z  c #445B12",
"x  c #485F12",
"c  c #525F12",
"v  c #585C19",
"b  c #4D630E",
"n  c #4B6111",
"m  c #4F6D1D",
"M  c #576115",
"N  c #536F17",
"B  c #597616",
"V  c #5D7A14",
"C  c #55731C",
"Z  c #597619",
"A  c #5B7B1B",
"S  c #607D13",
"D  c #607E18",
"F  c #414028",
"G  c #4F4E30",
"H  c #64623D",
"J  c #6C6A42",
"K  c #817F4F",
"L  c #638115",
"P  c #6A8E1D",
"I  c #738717",
"U  c #6E911B",
"Y  c #759716",
"T  c #779815",
"R  c #719418",
"E  c #759C1E",
"W  c #799E1D",
"Q  c #7CA11B",
"!  c #658A23",
"~  c #6A8C2A",
"^  c #6D9525",
"/  c #6C912C",
"(  c #709625",
")  c #739A21",
"_  c #7F9E22",
"`  c #789A28",
"'  c #86A51E",
"]  c #8DB91F",
"[  c #93BD1C",
"{  c #82A320",
"}  c #81AF2A",
"|  c #86B326",
" . c #8AB623",
".. c #8DBC25",
"X. c #84B42B",
"o. c #8BB928",
"O. c #91BE22",
"+. c #96C21D",
"@. c #99C51D",
"#. c #ADDF1F",
"$. c #AFE11F",
"%. c #B1E21E",
"&. c #94C121",
"*. c #98C121",
"=. c #99CF2F",
"-. c #9DD22C",
";. c #8FC637",
":. c #8CC43B",
">. c #90C737",
",. c #95CB33",
"<. c #98CE31",
"1. c #90C738",
"2. c #9AD030",
"3. c #A3D727",
"4. c #AADC21",
"5. c #ABDE22",
"6. c #ACDF21",
"7. c #A8DB24",
"8. c #A8DA25",
"9. c #A9DC24",
"0. c #A0D32B",
"q. c #A1D52A",
"w. c #A0D42B",
"e. c #A4D729",
"r. c #A4D828",
"t. c #A5D828",
"y. c #AEE020",
"u. c #B0E120",
"i. c #888653",
"p. c #908E58",
"a. c #A5A265",
"s. c #B3B06D",
"d. c #D0CC7F",
"f. c #D7D483",
"g. c #F4F095",
/* pixels */
"%.-.,.<.q.9.7.7.q.<.,.<.$.6.-.q.7.7.7.7.6.%.%.:.-.6.7.<.<.7.7.-.e.7.q.3.7.5.%.%.$.5.#.-.-.9.7.<.,.-.-.q.7.=.-.-.<.-.3.<.-.6.y.$.",
"t.-.,.,.-.$.6.-.<.<.=.-.6.6.7.-.-.7.-.7.6.%.q.:.6.y.7.-.<.-.q.<.<.q.q.3.5.6.$.$.%.6.q.5.q.-.-.=.,.=.-.q.3.<.,.,.<.-.<.<.-.y.$.5.",
"-.3.<.q.7.5.9.-.<.<.-.q.6.y.R Z C Z Z V V S Z X.5.7.7.7.7.t.-.1.,.<.q.U V S V +.7.-.<.q.-.:.:.:.:.,.,.=.-.-.q.-.7.-.>.,.;.7.7.q.",
"q.q.=.q.e.7.q.-.<.,.<.-.U Z $                 a o.5.7.5.7.7.7.2.! C B 2       k Z O.5.6.5.7.<.,.,.q.<.,.;.<.6.6.q.-.=.;.;.,.,.<.",
"-.#.3.7.5.y.5.9.q.<.=.U 2     G J J J J J J =   k &.7.5.7.7.5.U $       G J =     d +.5.5.q.-.-.,.,.1.,.<.-.$.0.-.7.$.7.<.,.-.7.",
"<.5.7.-.5.$.7.t.7.q.0.5   G J d.g.a.i.f.g.g.p.=   d O.5.6.9.5.7   G J J K f.p.J =   d +.7.-.q.7.=.;.;.-.5.7.-.q.5.$.%.7.3.,.<.-.",
"<.3.-.<.q.5.q.e.7.5.U $   s.g.g.a.0   s.g.g.g.p.=   Q 5.9.7.7.7   s.g.a.0 H f.g.p.=   k O.-.-.=.,.,.,.=.$.7.<.,.-.$.5.5.3.-.3.-.",
"<.-.,.<.q.7.5.5.5.q.7   G d.g.g.F     s.g.g.g.g.F   Q 5.q.q.9.7   s.g.F     s.g.g.p.=   W =.,.,.,.<.-.q.7.-.q.=.,.5.7.7.5.-.,.,.",
"<.<.,.,.3.q.5.3.3.q.7   s.g.g.g.F     s.g.g.g.g.F   k &.q.7.6.7   s.g.F     s.g.g.g.F   E -.-.-.<.<.q.7.-.,.-.-.<.=.-.q.#.q.>.,.",
",.,.,.;.-.-.7.7.7.5.7   s.g.g.g.F     s.g.g.g.g.p.=   Q -.P Z 2   s.g.F     s.g.g.g.F   ^ -.<.<.=.-.q.7.-.<.,.,.-.3.5.5.$.-.;.<.",
"1.;.,.<.<.-.q.5.$.5.7   H f.g.g.F     s.g.g.g.g.g.F   W -.5       s.g.F     s.g.g.g.F   ^ <.<.,.<.<.-.3.3.q.=.;.=.q.=.q.,.>.:.<.",
"<.>.<.q.-.-.=.7.9.5.L #   s.g.g.F     s.g.g.g.g.a.0   ) q.7       H f.p.J J d.g.g.a.0   ^ -.<.-.-.3.3.q.-.q.5.-.=.3.$.#.5.<.,.<.",
"q.-.-.q.-.<.7.6.7.-.3.7   s.g.g.F   G d.g.g.a.i.0   r X.P 2         H f.g.g.a.i.i.0     ) q.,.-.7.5.5.q.-.7.#.#.7.=.3.5.5.=.-.-.",
"q.5.5.7.-.q.P O.3.-.-.5   H i.f.p.J d.a.i.i.0     r m C 2             H i.i.0       i x B V C C V V O.q.-.e.6.6.6.e.<.q.q.<.7.q.",
"-.6.5.q.3.U $ k ..-.q.A #     H i.f.a.0       i z N $     r n b n x #         r z z } U 2           k O.q.7.5.5.7.7.-.,.<.,.3.q.",
"q.6.6.6.#.L #   k ..3.-.A x #     H 0       r  .R 2   r x  .7.%.y.5.D #       ) -.7.-.6   G J J J =   k o.q.7.7.7.5.q.<.,.q.7.q.",
"6.9.q.q.q.e.D #   k ..-.q.5.L n #           a C 2   r [ 6.6.6.T V V S 2       ) 7.5.R $   s.a.i.f.p.=   z ..-.-.q.q.-.<.<.<.,.q.",
"5.,.5.6.%.q.-.A #   ) -.7.5.6.Y 2                   Q $.T S S 2               E 7.5.7   G d.F   s.g.p.=   E -.<.-.q.-.-.-.,.,.7.",
"6.%.%.%.%.6.9.q.5   ) q.7.7.Y 2                     k S 2                   y ] -.q.7   s.g.F   s.g.g.F   ^ -.-.-.,.<.-.7.5.e.2.",
"2.7.%.%.%.5.q.-.5   k ..q.U 2                                               d V B ..7   s.g.F   s.g.g.F   E 5.6.7.-.-.q.5.6.%.7.",
"9.-.7.%.$.3.<.-.A #   k ..7       r x #                           . o             d 2   s.g.p.J d.g.g.F   Q %.$.y.5.-.=.q.$.6.%.",
"%.7.q.5.7.-.! C V 2     k $       Q q.7       .                   o : O o o t b b #     H i.i.f.g.g.g.F   Q %.%.y.7.t.q.q.5.6.%.",
"%.#.7.=.<.! %                     z o.A #     o             . o     o : > > v *.Y 2           H f.a.i.0   W y.%.7.7.7.7.q.-.t.%.",
"$.7.q.-.<.6       r x #     r x #   ) R 2     o             O O       o o o o f 2       y x #   H 0     i  .5.7.7.5.6.6.6.-.-.5.",
"7.-.-.-.-.7       W -.A #   ) <.5   k 2       o .         . o                       r n ] -.C z z x z x  .-.q.-.q.7.5.7.5.5.q.t.",
",.-.q.7.7.6       d ..q.7   ^ ,.5             O o         o                         z ..q.-.-.q.q.-.-.7.5.5.t.7.7.9.5.$.%.y.5.2.",
"<.q.7.7.3.7   r #   E -.5   a X.5           . - ; .                     . o o o       k C ..7.5.-.<.-.9.6.5.7.q.7.9.5.7.6.6.5.-.",
"q.-.-.<.-.7   ) 7   k o.A #   a $         . - > > .                     O > > O     u #   z V V O.<.=.7.5.q.q.q.q.q.7.q.7.7.-.q.",
"7.-.=.,.-.7   k n #   k X.A #             o o : > O                     o : O     . z $         d &.5.5.6.6.9.7.-.<.-.q.q.<.q.9.",
"5.-.<.3.7.L #   W A #   ) 0.D #               o O O             o o o     .     . @ .   r b b n b [ #.y.y.y.5.7.q.<.2.q.,.<.7.5.",
"$.-.7.7.7.Y 2   W q.6   Q -.-.7                                 o > , O         O : .   k @.5.7.q.-.5.$.%.6.y.9.-.2.<.<.,.-.5.$.",
"-.e.9.5.T 2   u [ 3.6   c O.q.6                   . o o           o ; ; .     . @ : .     k C B &.q.7.%.u.u.%.7.:.q.-.<.<.q.7.5.",
"e.7.q.U 2   u +.$.5.7   o M &.5                   o O > O           O - .     o : : .           z &.7.7.6.%.%.:.-.6.7.<.<.7.7.-.",
"<.q.U 2   u [ $.%.6.D #   @ _ 5   . o o               o : .         . o         o o               z Z V @.%.q.:.6.y.7.-.<.-.q.<.",
",.<.A x n [ 9.5.7.-.<.8 o : / e   : > : o               o                 . .         . o o             d S ..<.5.7.7.7.7.7.-.,.",
",.<.-.q.7.9.7.q.-.7.5.g : : l %   : > : : .                               . o         o : : o . . . o       z X.-.5.7.5.7.7.7.2.",
"<.<.<.q.e.7.7.t.7.7.5.I 4 O       @ > : O     . o                               . . . . @ : : : : : : o o     k O.7.7.5.7.7.5.q.",
",.;.1.<.=.-.q.-.q.7.7.5.9         @ : : .   . @ : .             . .             . o o o o o @ : : : : : : @     d +.7.5.6.9.5.7.",
"t.q.-.-.q.-.-.-.-.-.-.q.D x x #   o : : .   + : : o             o @ o .                     . o @ : o o : : .     k +.5.9.7.7.6.",
"6.%.5.,.<.7.-.-.-.q.-.q.7.=.,.C #   @ : .   . @ : : .     .     . o o O .             . .       . o     . : .   r z ..5.q.q.9.9.",
"y.9.q.-.-.-.-.q.q.q.q.-.-.-.-.-.5   . @ o     + : : o     @ @ o       .               . O o .         . o : .   z O.q.7.q.7.6.9.",
"t.q.7.q.q.-.q.q.-.-.3.<.<.-.<.<.A #   + : .   . @ : : .   o : : o                 .     O : : .   . . : > > @     d V &.-.-.q.q.",
"6.y.7.-.q.q.q.t.q.q.<.,.,.<.<.,.<.5   . @ o     . @ : o     . O O .   . .     . . O .   - > : .   @ : : > > > @       z ..<.q.9.",
"%.%.7.q.q.7.7.t.7.-.<.,.,.-.<.-.-.7     . O o     . @ : o     . o     o O     . O ; .   o > > .   o o : > > > > s x #   W q.<.7.",
"6.%.y.q.q.7.q.-.q.<.<.<.-.q.,.-.7.7       o O o     o O @ o         . O o       O : O     - > O       o o : > > ' e.7   k &.6.q.",
"t.5.6.q.3.5.5.q.-.,.<.q.5.7.,.-.7.7       . O O o . O @ O O .       o O .       o ; > .   - > > O o       o : : { q.A #   z @.y.",
"6.q.7.q.q.7.7.-.<.<.<.7.6.3.,.-.P $   .     o O O O O O O O .       o - o .     o - ; .   o : > > > O o     @ : ` -.<.A z z [ %.",
"y.5.q.-.-.q.3.-.-.7.-.-.q.q.q.7.7   . : .   o O O O O O O o     . . O O O o     o O - o     o O O : > : .   . h O.q.-.7.q.q.7.%.",
"9.9.6.e.-.-.q.-.7.5.5.-.<.-.-.7.7   @ 1 .   o O O O O O o     . O O O O O .   . O O O - o         o ; : o     ^ q.-.e.6.6.6.6.u.",
"7.7.7.q.q.q.q.q.7.5.5.t.-.<.<.3.7   @ 1 .   . o O O O O .   . O O O O O O     . O - O - ; o o o o o - ; - .   / =.=.5.$.%.%.6.6.",
"6.q.-.-.q.7.5.7.-.q.7.7.q.-.-.5.7   + < .   o o o O O O .   o O O O O O O o     O : - - - ; : > : : ; - O .   a m X.q.6.%.%.%.y.",
"%.y.7.-.-.q.6.5.-.0.7.7.7.e.q.7.D x & < + + @ @ O o O O     o O O O O O - - .   o o - - O O O - - - - O O o       a C o.5.%.%.y.",
"y.%.3.<.,.-.7.$.7.7.5.7.7.7.q.7.<.;.j 1 1 1 1 : @ o o o     . O O O O - - ; o       . O O o o o o O O O O O           a o.y.%.9.",
"5.6.<.,.,.<.3.6.6.y.6.7.5.7.q.7.<.~ w < 1 1 1 1 : @ o o .     o O O O - : : : o o     . . . . . . o o o O O     . . .   k ..7.q.",
"q.t.<.<.-.<.-.7.$.6.6.5.5.3.q.<.~ q * < < 1 1 1 < @ o . o     . o o O - : > > : : o .               . . o o     . O o .   ( -.q.",
"e.-.<.-.7.7.7.5.6.q.3.5.5.q.! C 3 + * * < < < < * + . . . .         . o - : : : : @ O o                 . . .     . o .   z X.<.",
",.,.<.7.5.5.$.$.5.q.3.7.R B %   . X + * * * * * + X .     .   . .       . - : : O O O O .                 . .       . .     W <.",
",.<.<.3.7.-.6.7.7.q.7.U 2           X + + * * + + .         . . o . . . . o O O O o o o o .                 .             r | -.",
";.1.,.;.<.<.<.t.R B S $         r #   . X + + X .               . . . . . . . . . . . . .                     .         r ] -.,.",
"2.t.7.-.<.5.y.R $             y ..A #       .       r x #   i x x #     p n #               i z #                       z ..3.-.",
"q.7.7.q.<.,.6.L #         r n [ 9.7.L n b b n n # i | q.A z  .9.7.A # i | 7.L #     y x z z | q.D n x n #                 Q 9.5.",
"7.5.q.-.-.q.=.<.A z z z n [ y.7.6.9.#.y.y.y.5.7.A } -.q.,.<.7.6.5.-.A  .7.9.6.L # r ] e.-.0.3.3.5.7.-.3.D z x #         r  .-.t.",
"y.$.-.<.-.q.-.<.<.<.;.;.-.6.7.7.q.-.5.$.%.6.y.9.-.-.<.<.,.2.5.y.$.-.7.7.7.6.6.6.D  .-.q.7.-.-.q.5.5.-.=.q.q.-.A n x x x  .q.q.5.",
"%.6.7.-.-.<.2.-.7.q.,.<.-.-.,.7.7.q.7.%.u.u.%.7.:.q.-.<.,.q.7.6.-.e.9.5.y.5.6.%.6.7.-.-.5.q.q.-.7.3.-.=.-.,.<.<.,.<.-.<.q.7.9.6."
};
