/* XPM */
static char *_86559a182134406f3f5907611116bf65KXIbKXC5sDSzSo2[] = {
/* columns rows colors chars-per-pixel */
"64 64 66 1 ",
"  c #175E33",
". c #185F33",
"X c #1C6233",
"o c #216732",
"O c #226832",
"+ c #2A6A33",
"@ c #3D7733",
"# c #5A613D",
"$ c #966347",
"% c #976C45",
"& c #986D44",
"* c #55932E",
"= c #5A972D",
"- c #5D9B2E",
"; c #4E8D34",
": c #508F31",
"> c #549334",
", c #599732",
"< c #5B9931",
"1 c #619E2C",
"2 c #67A227",
"3 c #64A12A",
"4 c #6BA628",
"5 c #9B9F37",
"6 c #95993D",
"7 c #9B9B3A",
"8 c #A29B35",
"9 c #9FA334",
"0 c #87BE37",
"q c #A1A333",
"w c #ADDF1F",
"e c #AFE11F",
"r c #B1E21E",
"t c #95CC2F",
"y c #99CF2E",
"u c #9ED326",
"i c #9DD22C",
"p c #8EC536",
"a c #8DC43A",
"s c #90C736",
"d c #95CB33",
"f c #98CD30",
"g c #98CE30",
"h c #90C738",
"j c #9AD030",
"k c #A1D527",
"l c #A2D727",
"z c #A4D727",
"x c #ABD523",
"c c #A7DA23",
"v c #A3D827",
"b c #A7DA25",
"n c #AADB22",
"m c #ABDE22",
"M c #ADDF21",
"N c #A8DB24",
"B c #A9DC24",
"V c #A0D32B",
"C c #A3D728",
"Z c #A1D52A",
"A c #A4D728",
"S c #A0D42C",
"D c #A5D828",
"F c #B0D921",
"G c #AEE020",
"H c #B0E120",
/* pixels */
"ridfZBNNZfdfeMiZbbbNMrraiMDffbNiAbZlbmrremwiiBcfdiiZbyiifibfiMGe",
"DiddieMiffyiMMbiibibMrZaMGbifiZffZZlmMeerMZnZiiydyiZlfddfiffiGem",
"ilfZbmBiffiZMGmifiiNbGSfmNbbbbihdfZZBMBmNifZiaaapddyiiZibihdpbbZ",
"ZZyZAbZifdfiZiijfiZbBbbfimbmbbbjdfiZDBbZibmMmbfddZfdpfMMZiyppddd",
"iwzbmGmBZfyvBmeemiZMMMBiZNbmNbmZfffZAbbDbbmmmZiiddhdfieVicebfdib",
"fnNineNDbZVdyMermiiNGrdNmmbmMBmbp;>,yiZiZbNmbiZbyppimbiZmerNzdfi",
"flifZmZAbmviZMeMbfibGMZmZZMmBbbb=  X-iiiiiiZliiydddyebfdiemnlili",
"fidfZbnmmZZZbmMmZiZNmZimZibmZZBu    obiiiZiZbydsdfiZciZydmbbmidd",
"ffddlZmzlZiiZbZiiZBbbbiZbzZbZbMu    oiiZZZZiiiiiffZNidiifyiZwZhd",
"dddpiibbbmczZbiiiZDDbbZZNmBbiii*    oiZZiiZffiffyiZmifddivmmeipf",
"hpdffiZmemmmbZiiiZbbbNZmmzbbify     X-ZDZZfddffdffivlZypyZyZdhaf",
"fhfZiiybBnbbbZZiZnbbMZZMmZZiZi>      oNDNifddifiillZiZmiylewmfdf",
"ZiiZifbMbilbbbAZZZfDMbZbBAZfiu       X-iZfffiZdibmmZibwwbylmnyii",
"ZmmbiZibliiffZZbiiZZmZZNbZffi=        oZidfZmbdibbbZiAMMMAfZZfbZ",
"iMmZlliZliZfiZffdddjdfiffifit   .+    X<fffbMldiifiZZbmmbbidfdlZ",
"ZMMMwbZiiZlifZNZiiffffiZbZil*  .+@+    X,biiZZZbbZbZiZbNbmZfdZbZ",
"MBZZZAAZfiZiZmNbbBiiifdfZii=   .+@@+    X3mifiibNmmmAZiiZZifffdZ",
"mdmMrZiiffiiNmMGGMSbZidpyyu     X@@@     X3DifflmmNNiZifiZiiiddN",
"MrrrrMBZffiZbNMrrBZbmZidps*     X@@@      X1ZiimnmbiffiiidfibmAj",
"jbrrrmZifiZZZzmGeZDZzZbni0      .+@@++     obAZbZliiiZmMNiiZmMrb",
"BiNrezfiZbmZZzmmmZZZiimwl:       .+@@@+    X-bZbfpdfZmreGmiyZeMr",
"rNZmbifibbbZiibmMBZZZbGm=         .+@@+     X--bfhpfiBrrGbDZZnMr",
"rwbyfffiNbZZfZZbbbiibc1=           .++        X,ddfffbGrNbbbZiDr",
"ebZifiiZNziZiiiiiiiNm=                         X,yiifAmbbmMMMiim",
"biiiiZiZmbiZZiifyii-=                           X<iZZiZiZbmbnmZD",
"diZbbiiZNNllidddfy=    .+                .++     X,1mmDbNBmerGmj",
"fZbbliiZiZiitppp>:    .+@+              .+@@+      X3mbZbBmNMMmi",
"ZiifibZiNZZifds;    .++@@@     .+       .+@@@+      X-ZZZZbZNbiZ",
"NiydibnZlmcis>*   .++@@@@+    .+@+       .+@@@+      OBbifiSZfZB",
"mifzbBMelZbi*    .+@@@@++     X@@@        .+@@+      OmbZfjSdfbM",
"eibbbMMMbZt*     .+@@@+       X@@@         .++      X4GBijffdime",
"iABmGmMrMu>       .+++       .+@@+               X134HrbaZiffSbm",
"AbZlbmrrel                  .+@@+      X1,>,33-113bNMrraiMbffbNi",
"fZZlmMeern=                .+@@+       offyiMMbiibibMrZaMGNifiZf",
"dfZZmMBmNid-->>>>,>        .+@+        X,fiZMGmifiiNbGSfmNbbbbid",
"dfiZbBbZibmMmbfddi:         .+          X>fiZiijfiZbBbbfiBDBbbbj",
"fffZAbbDbbmmmZiidp                       X,vBmeemiZMMMBiZNbmNbmZ",
"dphfyiZiZbNmbiZbt; .+                   .+X>yMermiiNGrdNmmbmMBmb",
"DZiiZiiiiiiZliit; .+@+                 .+@+X-MeMbfibGMZmZZMmBbbM",
"MrmdfbiiiZiZbyp; .+@@@                 X@@@ X3MmZiZNmZimZibmZZBB",
"GBZiiiiZZZliit* .+@@@+                 .+@@+ X-iiZBbbbiZbzZbZbMB",
"DZbZZiZZiilfs* .+@@@+                   X@@@+++,,-DDbbZZNmBbiiZZ",
"MGbiZZZDZZs>;.++@@@+                    .+@@@@@+ X==1NZmmzbbifZB",
"rrbZZbNDNy: .+@@@@+                      .++@@@@+   X=-MmZZiZZfN",
"MrGZZNZy,; .+@@@++                         .++@@+     X-1AZfiBMZ",
"ZmMZlMz*   .+@++                             .++        oZffibGG",
"MZbZzl=     .+                                          oifiiimr",
"GmZii*                                                  oZibZSbr",
"BBMAy=                                         X13-<,,,,3iAMMMMH",
"NNbZZi1--                       .###21--,,<-1334GMZbZidpyymerrMM",
"MZiiZbmbi-111--3131-,,--<########$$&rMBZffiZbNMrrBZbmZidpfZMrrrG",
"rGNiiZMmiVNNbAZbZliiiZmn7$$$$$$$$$$&rmZifiZZZzmGeZDZzZbnihfimrrG",
"GrlfdibeNNmbbbZbfpdfZmrx$$$$$$$$$$$&ezfiZbmZZbmmmZZZiimwbfdfiGrB",
"mMfddflMMGMbmNZbfhpfiBrF$$$$$$$$$$$&bifibbbZiibmMBZZZbGebfZifZNZ",
"SDffifibeMMmmzZfddfffbn8$$$$$$$$$$$%fffiNbZZfZZbbbiibmeMiZiZifiS",
"AifibbbmMZlnmZfffyiifAx$$$$$$$$$$$$%fiiZNziZiiiiiiiNGrrDiifiNZff",
"ddfbmmeemZzbNidfiiiZZiV7$$$$$$$$$$$%iZiZmbiZZiifyiZnrrGBmMZZbNZf",
"dffzbiMbNZblZiiZZiibmmDz9qqqqqq76759biiZNNZZidddfibNHemMrrbimZii",
"phdpfffDNZMidZbmifiBMmbZbBmNMMmifZbbliiZiZiitpphdtiZbbNBrrZiZbid",
"jDbifmGNiZMnZbbmbfybmZZZZZbZNbiZZiifibZiNZZifddsiZiNbiZmMbZibili",
"ZNNZfdMNiZZiiiBeNbmmMMBbifiZZfZBNiydibnZlmciffiZAbibZAbbfmZiZBBm",
"bmZiiZyffiifbGGNMnwGGGmbZfiZdfbMmifzbBMelZbZiVzlmbivZiAiZbfdiZiD",
"GeifiZifffppiMbbZimerMGBiiffdjmGeibbbMMMbZiZbiiZmniyZZiybiiiAZZm",
"rMbiifjibZdfiidbbZbrHHrbaZifdSNMiABmGmMrMviimZZibziyidffdfifZbBM"
};
